<svg width="17" height="17" viewBox="0 0 17 17" fill="none" xmlns="http://www.w3.org/2000/svg">
<path d="M10.0411 8.50001L16.6806 1.86049C17.1064 1.43473 17.1066 0.745329 16.6806 0.319465C16.2548 -0.106433 15.5654 -0.106533 15.1395 0.319432L8.50001 6.95895L1.8605 0.319465C1.43473 -0.1064 0.7453 -0.106533 0.319436 0.319398C-0.106462 0.745263 -0.106495 1.43456 0.319436 1.86046L6.95888 8.50001L0.319403 15.1395C-0.105499 15.5644 -0.105499 16.2557 0.319403 16.6806C0.745234 17.1064 1.4346 17.1065 1.86046 16.6806L8.49995 10.041L15.1394 16.6805C15.5652 17.1064 16.2546 17.1064 16.6805 16.6805C17.1064 16.2547 17.1065 15.5654 16.6805 15.1394L10.0411 8.50001Z" fill="white"/>
</svg>
