<svg width="21" height="20" viewBox="0 0 21 20" fill="none" xmlns="http://www.w3.org/2000/svg">
<path d="M20.1307 10.7889C20.3927 11.1375 20.5482 11.5701 20.5482 12.0388C20.5482 12.3936 20.4592 12.7278 20.3017 13.0201C20.152 13.3002 19.9392 13.5422 19.6833 13.7275C19.9454 14.0757 20.1008 14.5087 20.1008 14.9774C20.1008 15.6712 19.76 16.2872 19.2368 16.6665C19.4984 17.0146 19.6534 17.4473 19.6534 17.9156C19.6534 19.065 18.7184 19.9999 17.5694 19.9999H11.0075C9.92652 19.9999 8.86567 19.8076 7.85361 19.4283L4.57141 18.1977V9.52265H4.74733C7.21513 6.91542 9.89576 3.95226 10.3013 3.30353V0.884111C10.3013 0.396538 10.6979 0 11.1854 0C13.1964 0 14.8326 1.63577 14.8326 3.64675V4.73795L14.1728 7.01589H18.9112C20.0606 7.01589 20.9955 7.95085 20.9955 9.10028C20.9955 9.79412 20.6544 10.4096 20.1307 10.7889Z" fill="#FFBD86"/>
<path d="M19.2368 16.6665C19.4984 17.0146 19.6534 17.4473 19.6534 17.9156C19.6534 19.065 18.7184 19.9999 17.5694 19.9999H11.0075C9.92652 19.9999 8.86567 19.8076 7.85361 19.4283L4.57141 18.1977V13.0201H20.3017C20.152 13.3002 19.9392 13.5422 19.6833 13.7275C19.9454 14.0757 20.1008 14.5087 20.1008 14.9774C20.1008 15.6712 19.76 16.2872 19.2368 16.6665Z" fill="#F6A96C"/>
<path d="M5.80167 6.61032H0V19.5981H5.80167V6.61032Z" fill="#006EFF"/>
<path d="M5.80167 13.0201H0V19.5981H5.80167V13.0201Z" fill="#005FE4"/>
</svg>
